<svg xmlns="http://www.w3.org/2000/svg" version="1.1" viewBox="13.07 7.14 2537.01 1216.27" width="457.14285714285717" height="218.75"><path d="M 1058 7.650 C 1056.075 7.831, 1048.875 8.457, 1042 9.042 C 991.802 13.310, 922.211 29.241, 858.517 51.045 C 725.891 96.446, 596.891 170.706, 477.500 270.381 C 425 314.211, 373.814 365.443, 338.506 409.500 C 288.613 471.755, 257.805 530.347, 246.298 584.867 C 243.965 595.918, 243.624 599.880, 243.574 616.500 C 243.525 633.076, 243.808 636.648, 245.791 644.500 C 254.187 677.738, 278.797 700.730, 316.389 710.457 C 334.104 715.040, 347.803 716.287, 373.500 715.653 C 404.401 714.890, 423.936 712.012, 450.500 704.308 C 468.276 699.153, 482.769 693.146, 509.402 679.893 C 522.548 673.352, 534.361 668, 535.652 668 C 538.800 668, 538.697 670.339, 535.250 677.157 C 528.687 690.138, 512.506 709.107, 499.382 719.206 C 496.081 721.746, 480.807 731.444, 465.440 740.757 C 249.110 871.858, 145.747 945.630, 79.130 1016.473 C 43.340 1054.534, 20.498 1094.112, 14.543 1128.381 C 12.617 1139.465, 12.579 1158.349, 14.464 1167.246 C 18.046 1184.150, 29.167 1198.188, 45 1205.793 C 58.780 1212.412, 72.744 1215.229, 98 1216.484 C 167.692 1219.947, 254.841 1176.757, 355 1089.119 C 373.949 1072.539, 424.415 1022.280, 443.983 1000.500 C 507.655 929.634, 562.528 857.831, 627.781 760 C 642.271 738.275, 656.118 718.173, 658.553 715.329 C 664.318 708.594, 678.255 697.569, 701.083 681.686 C 711.212 674.638, 730.170 661.363, 743.211 652.186 C 784.756 622.949, 806.558 610, 814.237 610 C 820.446 610, 820.415 611.481, 813.681 637.081 C 807.032 662.360, 806.947 676.858, 813.371 690.500 C 821.687 708.163, 838.826 721.440, 860.500 727.010 C 866.734 728.613, 871.599 729.063, 882.538 729.053 C 913.139 729.023, 939.998 722.454, 970.500 707.542 C 1012.948 686.790, 1044.598 660.195, 1108.604 591.500 C 1157.748 538.755, 1176.954 522.468, 1196.932 516.596 C 1204.498 514.373, 1213.643 514.451, 1214.845 516.750 C 1215.475 517.954, 1214.538 523.647, 1211.843 535 C 1201.700 577.731, 1197.716 603.122, 1197.722 625 C 1197.740 689.984, 1235.159 724.900, 1305 725.104 C 1333.114 725.185, 1353.206 720.318, 1380.116 706.908 C 1439.398 677.365, 1497.835 609.398, 1542.082 518.531 C 1558.384 485.050, 1571.493 450.641, 1578.548 422.811 C 1581.966 409.325, 1585 391, 1585 383.835 C 1585 374.757, 1585.711 374, 1594.233 374 C 1598.172 374, 1611.094 374.925, 1622.948 376.055 C 1645.993 378.251, 1650.785 379.538, 1657.699 385.386 C 1665.993 392.401, 1668.850 406.696, 1665.096 422.393 C 1660.732 440.642, 1647.015 471.116, 1627.012 507 C 1602.746 550.530, 1576.957 591.892, 1518.672 680.761 C 1511.725 691.354, 1505.356 701.344, 1504.520 702.961 C 1501.162 709.455, 1503.922 716.051, 1510.795 717.960 C 1513.151 718.614, 1536.903 718.987, 1576 718.985 L 1637.500 718.980 1642.556 716.626 C 1645.360 715.320, 1649.277 712.326, 1651.354 709.900 C 1653.412 707.495, 1677.648 670.871, 1705.212 628.514 C 1764.295 537.721, 1759.746 544.428, 1763.500 542.573 C 1767.443 540.624, 1768.242 541.519, 1771.026 551 C 1776.929 571.098, 1787.030 581.021, 1806.715 586.055 C 1824.506 590.605, 1842.614 589.535, 1864.250 582.655 L 1875 579.236 1875 581.629 C 1875 582.946, 1873.465 589.086, 1871.589 595.275 C 1866.508 612.040, 1864.893 621.047, 1864.290 636 C 1862.482 680.867, 1876.062 713.164, 1902.062 725.826 C 1916.475 732.846, 1931.087 734.480, 1953.155 731.542 C 2011.937 723.717, 2081.133 684.587, 2167.837 610.140 C 2176.254 602.913, 2183.323 597, 2183.545 597 C 2184.320 597, 2181.871 602.570, 2175.915 614.357 C 2157.151 651.491, 2115.980 711.033, 2058.615 784 C 2028.018 822.919, 1983.480 876.779, 1911.010 962.500 C 1826.177 1062.844, 1808.886 1084.303, 1791.597 1110.699 C 1775.281 1135.611, 1770.285 1150.489, 1772.128 1168.676 C 1774.617 1193.228, 1791.168 1213.189, 1816 1221.583 C 1823.173 1224.007, 1837.101 1224.020, 1846 1221.611 C 1872.081 1214.548, 1907.159 1188.154, 1942.623 1148.906 C 2019.126 1064.241, 2096.083 943.362, 2261.520 648 C 2311.231 559.250, 2332.283 525.932, 2370.834 475 C 2390.433 449.107, 2399.146 438.889, 2419.015 418.500 C 2454.794 381.785, 2471.214 360.419, 2477.038 343 C 2484.080 321.940, 2470.962 299.893, 2449.918 297.420 C 2431.102 295.209, 2388.904 318.242, 2347.500 353.324 C 2321.673 375.208, 2306.148 390.983, 2248.430 453.989 C 2184.799 523.451, 2148.174 556.495, 2110.357 578.564 C 2087.124 592.122, 2067.599 598.288, 2047.480 598.421 C 2035.822 598.498, 2035.258 598.400, 2028.737 595.191 C 2020.825 591.296, 2016.834 586.298, 2014.509 577.373 C 2011.416 565.498, 2013.028 558.899, 2020.961 550.951 C 2026.818 545.082, 2029.541 543.727, 2050 536.497 C 2090.144 522.311, 2140.023 489.419, 2178.881 451.506 C 2210.294 420.858, 2229.275 393.834, 2238.239 367 C 2241.163 358.247, 2241.416 356.439, 2241.456 344 C 2241.493 332.555, 2241.173 329.637, 2239.354 324.832 C 2234.855 312.945, 2226.751 304.774, 2216.149 301.435 C 2208.820 299.127, 2187.562 299.883, 2173 302.970 C 2125.751 312.984, 2074.424 341.697, 2024.500 386.043 C 2010.059 398.871, 1982.136 427.310, 1968.577 443 C 1946.958 468.016, 1936.341 477.259, 1927.594 478.678 C 1924.605 479.163, 1923.444 478.830, 1921.362 476.887 C 1909.299 465.637, 1904.564 425.326, 1911.389 392 C 1914.331 377.639, 1919.162 364.685, 1928.647 345.723 C 1937.165 328.697, 1939.329 321.767, 1938.429 314.395 C 1937.177 304.141, 1931.531 298.082, 1921.233 295.945 C 1901.632 291.876, 1881.550 303.870, 1833.960 348.067 C 1810.481 369.872, 1807.142 372.574, 1805.167 371.364 C 1804.250 370.803, 1799 361.341, 1793.500 350.338 C 1782.597 328.525, 1777.652 321.143, 1769.772 314.914 C 1759.922 307.128, 1749.474 303.223, 1730.762 300.334 C 1718.499 298.440, 1686.380 298.079, 1614.500 299.026 C 1579.983 299.480, 1578.336 299.418, 1574.515 297.500 C 1570.730 295.601, 1570.120 294.585, 1562.372 277.303 C 1520.389 183.651, 1463.705 114.103, 1396.749 74.093 C 1339.463 39.863, 1263.501 27.812, 1216.422 45.486 C 1189.994 55.408, 1171.821 77.055, 1166.577 104.860 C 1164.585 115.421, 1164.553 134.432, 1166.506 147.500 C 1176.094 211.670, 1223.215 265.736, 1302.579 303.628 C 1316.466 310.258, 1340.255 320.009, 1352 323.885 C 1355.575 325.065, 1359.082 326.400, 1359.793 326.851 C 1362.597 328.629, 1338.682 358.318, 1316.983 379.996 C 1290.151 406.803, 1264.805 424.445, 1242.352 431.945 C 1230.726 435.828, 1226.747 435.934, 1225.138 432.404 C 1224.146 430.227, 1224.430 428.092, 1226.899 419.154 C 1231.383 402.923, 1233.108 393.561, 1233.836 381.500 C 1236.914 330.501, 1218.239 299.578, 1179.493 291.519 C 1169.081 289.353, 1147.715 289.370, 1133.906 291.556 C 1071.007 301.511, 999.114 351.862, 865.286 479.688 C 837.332 506.388, 824.967 516.464, 808.785 525.729 C 799.633 530.969, 786.646 535.980, 785.414 534.747 C 784.668 534.002, 783.452 535.758, 811.903 496.500 C 870.857 415.153, 904.143 370.954, 921.479 351 C 941.749 327.670, 944.987 321.491, 941.598 312.617 C 939.484 307.083, 934.556 302.761, 927 299.815 C 909.125 292.846, 869.142 302.367, 837.298 321.176 C 822.615 329.849, 812.874 338.122, 790.001 361.345 C 725.229 427.107, 658.185 490.220, 613.528 527.469 C 569.044 564.574, 536.855 587.065, 507.500 601.550 C 488.582 610.885, 477.654 614.224, 465.500 614.383 C 457.531 614.487, 455.846 614.179, 450.796 611.699 C 440.096 606.445, 434.936 597.209, 434.235 582.058 C 433.700 570.510, 435.574 562.270, 443.204 542.625 C 449.289 526.958, 467.551 490.618, 478.444 472.500 C 548.042 356.743, 643.776 264.231, 757.843 202.506 C 797.715 180.931, 845.406 162.084, 884.163 152.588 C 930.626 141.203, 964.232 140.244, 1024.312 148.587 C 1034.783 150.041, 1044.622 150.918, 1046.502 150.566 C 1048.430 150.204, 1050.905 148.713, 1052.270 147.091 C 1053.585 145.529, 1070.037 116.982, 1088.830 83.655 C 1125.200 19.159, 1125.461 18.592, 1120.750 14.297 C 1117.785 11.595, 1113.578 10.331, 1101.500 8.515 C 1092.518 7.165, 1068.272 6.682, 1058 7.650 M 1302.909 118.896 C 1280.686 126.006, 1273.114 149.434, 1284.133 176.984 C 1295.073 204.333, 1328.600 234.784, 1374.703 259.245 C 1416.429 281.383, 1467.115 299, 1489.082 299 C 1495.286 299, 1495.912 297.754, 1493.535 290.142 C 1486.089 266.302, 1469.748 233.247, 1452.432 207 C 1423.769 163.555, 1389.560 134.257, 1353.974 122.678 C 1336.759 117.077, 1313.890 115.383, 1302.909 118.896 M 2505.471 162.336 C 2499.191 164.397, 2488.182 170.509, 2480.500 176.198 C 2470.508 183.597, 2451.590 203.027, 2444.149 213.533 C 2428.343 235.848, 2424.557 251.067, 2431.595 263.998 C 2439.480 278.485, 2463.197 292.188, 2477.779 290.683 C 2488.995 289.526, 2507.565 278.332, 2522.045 264 C 2540.486 245.748, 2550.017 225.487, 2550.086 204.390 C 2550.146 185.959, 2541.085 169.906, 2527.139 163.737 C 2521.457 161.224, 2510.932 160.543, 2505.471 162.336 M 1456.750 360.689 C 1455.609 360.987, 1455 362.121, 1455 363.945 C 1455 366.046, 1457.013 368.956, 1463.078 375.622 C 1472.652 386.144, 1476.530 393.359, 1475.517 398.762 C 1473.306 410.546, 1461.921 422.543, 1437.500 438.824 C 1428.281 444.970, 1421.446 450.547, 1414 457.997 C 1382.001 490.014, 1349.453 537.820, 1339.447 567.500 C 1337.702 572.676, 1336.582 578.500, 1336.273 584 C 1335.840 591.720, 1336.012 592.813, 1338.148 595.908 C 1342.151 601.708, 1345.094 603.242, 1353.219 603.764 C 1374.995 605.161, 1398.212 593.888, 1421.595 570.564 C 1441.804 550.406, 1459.006 525.166, 1476.142 490.525 C 1495.146 452.110, 1512 401.998, 1512 383.910 C 1512 372.596, 1508.656 370.430, 1481.177 363.947 C 1465.413 360.228, 1460.847 359.619, 1456.750 360.689 M 1137.892 387.300 C 1110.982 398.629, 1051.956 447.996, 1012.616 492.076 C 984.432 523.657, 966.965 549.770, 958.487 573 C 954.748 583.244, 953.896 598.752, 956.783 604 C 960.925 611.531, 972.255 614.685, 982.379 611.127 C 1010.572 601.218, 1072.914 542.811, 1088.922 511.309 C 1093.479 502.341, 1093.208 497.647, 1087.750 491.017 C 1080.470 482.174, 1079.293 480.235, 1078.609 475.958 C 1076.261 461.275, 1083.447 453.316, 1123.500 426.237 C 1141.518 414.055, 1149.118 407.466, 1153.042 400.624 C 1156.581 394.454, 1157.010 388.611, 1154.040 387.022 C 1149.797 384.751, 1143.699 384.856, 1137.892 387.300 M 2146.500 387.008 C 2131.400 390.369, 2090.898 423.826, 2069.032 451 C 2062.872 458.655, 2056 470.824, 2056 474.075 C 2056 483.453, 2078.375 472.322, 2104.079 450.157 C 2128.724 428.905, 2149.268 403.237, 2151.514 390.890 C 2152.265 386.756, 2151.231 385.955, 2146.500 387.008 M 350.261 904.477 C 318.046 920.603, 246.204 977.015, 202.808 1020.259 C 164.229 1058.702, 147.777 1084.523, 150.944 1101.656 C 152.183 1108.358, 153.979 1111.409, 158.197 1113.974 C 174.310 1123.772, 204.378 1107.771, 246.201 1067.140 C 288.572 1025.978, 332.654 968.738, 352.547 929.053 C 360.843 912.502, 364.309 900, 360.602 900 C 359.833 900, 355.179 902.015, 350.261 904.477" stroke="none" fill="#860f5b" fill-rule="evenodd"/></svg>